<svg width="107" height="44" viewBox="0 0 107 44" fill="none" xmlns="http://www.w3.org/2000/svg">
<rect width="107" height="44" rx="12" fill="#1C1C1E"/>
<g clip-path="url(#clip0_7_443)">
<path d="M64 26.5H43V28H64V26.5Z" fill="white"/>
<path d="M64 29.5H43V31H64V29.5Z" fill="white"/>
<path d="M59.5 17.5C59.2033 17.5 58.9133 17.588 58.6666 17.7528C58.42 17.9176 58.2277 18.1519 58.1142 18.426C58.0006 18.7001 57.9709 19.0017 58.0288 19.2926C58.0867 19.5836 58.2296 19.8509 58.4393 20.0607C58.6491 20.2704 58.9164 20.4133 59.2074 20.4712C59.4983 20.5291 59.7999 20.4994 60.074 20.3858C60.3481 20.2723 60.5824 20.08 60.7472 19.8334C60.912 19.5867 61 19.2967 61 19C61 18.6022 60.842 18.2206 60.5607 17.9393C60.2794 17.658 59.8978 17.5 59.5 17.5Z" fill="white"/>
<path d="M53.5 22C52.9067 22 52.3266 21.8241 51.8333 21.4944C51.3399 21.1648 50.9554 20.6962 50.7284 20.1481C50.5013 19.5999 50.4419 18.9967 50.5576 18.4147C50.6734 17.8328 50.9591 17.2982 51.3787 16.8787C51.7982 16.4591 52.3328 16.1734 52.9147 16.0576C53.4967 15.9419 54.0999 16.0013 54.6481 16.2284C55.1962 16.4554 55.6648 16.8399 55.9944 17.3333C56.3241 17.8266 56.5 18.4067 56.5 19C56.4991 19.7954 56.1828 20.5579 55.6203 21.1203C55.0579 21.6828 54.2954 21.9991 53.5 22ZM53.5 17.5C53.2033 17.5 52.9133 17.588 52.6666 17.7528C52.42 17.9176 52.2277 18.1519 52.1142 18.426C52.0007 18.7001 51.9709 19.0017 52.0288 19.2926C52.0867 19.5836 52.2296 19.8509 52.4393 20.0607C52.6491 20.2704 52.9164 20.4133 53.2074 20.4712C53.4983 20.5291 53.7999 20.4994 54.074 20.3858C54.3481 20.2723 54.5824 20.08 54.7472 19.8334C54.912 19.5867 55 19.2967 55 19C54.9996 18.6023 54.8414 18.221 54.5602 17.9398C54.279 17.6586 53.8977 17.5004 53.5 17.5Z" fill="white"/>
<path d="M47.5 17.5C47.2033 17.5 46.9133 17.588 46.6666 17.7528C46.42 17.9176 46.2277 18.1519 46.1142 18.426C46.0006 18.7001 45.9709 19.0017 46.0288 19.2926C46.0867 19.5836 46.2296 19.8509 46.4393 20.0607C46.6491 20.2704 46.9164 20.4133 47.2074 20.4712C47.4983 20.5291 47.7999 20.4994 48.074 20.3858C48.3481 20.2723 48.5824 20.08 48.7472 19.8334C48.912 19.5867 49 19.2967 49 19C49 18.6022 48.842 18.2206 48.5607 17.9393C48.2794 17.658 47.8978 17.5 47.5 17.5Z" fill="white"/>
<path d="M62.5 25H44.5C44.1025 24.999 43.7215 24.8406 43.4405 24.5595C43.1594 24.2785 43.001 23.8975 43 23.5V14.5C43.001 14.1025 43.1594 13.7215 43.4405 13.4405C43.7215 13.1594 44.1025 13.001 44.5 13H62.5C62.8975 13.001 63.2785 13.1594 63.5595 13.4405C63.8406 13.7215 63.999 14.1025 64 14.5V23.5C63.9995 23.8977 63.8413 24.2789 63.5601 24.5601C63.2789 24.8413 62.8977 24.9995 62.5 25V25ZM62.5 14.5H44.5V23.5H62.5V14.5Z" fill="white"/>
</g>
<defs>
<clipPath id="clip0_7_443">
<rect width="24" height="24" fill="white" transform="translate(41.5 10)"/>
</clipPath>
</defs>
</svg>
