<svg width="107" height="44" viewBox="0 0 107 44" fill="none" xmlns="http://www.w3.org/2000/svg">
<rect width="107" height="44" rx="12" fill="#1C1C1E"/>
<g clip-path="url(#clip0_7_432)">
<path d="M61 17.0007H58.9287C59.4169 16.2792 59.6062 15.3965 59.4569 14.5382C59.3076 13.68 58.8313 12.9131 58.1281 12.3989C57.4249 11.8846 56.5497 11.6631 55.6866 11.7809C54.8234 11.8988 54.0396 12.3467 53.5 13.0306C52.9592 12.3501 52.1761 11.9052 51.3146 11.7892C50.4532 11.6731 49.5802 11.8949 48.8786 12.408C48.177 12.9211 47.7011 13.6858 47.5506 14.5419C47.4001 15.398 47.5867 16.2791 48.0713 17.0007H46C45.6023 17.0012 45.2211 17.1594 44.9399 17.4406C44.6587 17.7218 44.5005 18.1031 44.5 18.5007V21.5007C44.5005 21.8984 44.6587 22.2796 44.9399 22.5608C45.2211 22.842 45.6023 23.0002 46 23.0007V30.5007C46.0005 30.8984 46.1587 31.2796 46.4399 31.5608C46.7211 31.842 47.1023 32.0002 47.5 32.0007H59.5C59.8977 32.0002 60.2789 31.842 60.5601 31.5608C60.8413 31.2796 60.9995 30.8984 61 30.5007V23.0007C61.3977 23.0002 61.7789 22.842 62.0601 22.5608C62.3413 22.2796 62.4995 21.8984 62.5 21.5007V18.5007C62.4995 18.1031 62.3413 17.7218 62.0601 17.4406C61.7789 17.1594 61.3977 17.0012 61 17.0007V17.0007ZM54.25 15.1257C54.25 14.7549 54.36 14.3924 54.566 14.084C54.772 13.7757 55.0649 13.5354 55.4075 13.3935C55.7501 13.2515 56.1271 13.2144 56.4908 13.2868C56.8545 13.3591 57.1886 13.5377 57.4508 13.7999C57.713 14.0621 57.8916 14.3962 57.964 14.7599C58.0363 15.1236 57.9992 15.5006 57.8573 15.8433C57.7154 16.1859 57.475 16.4787 57.1667 16.6847C56.8584 16.8908 56.4958 17.0007 56.125 17.0007H54.25V15.1257ZM50.875 13.2507C51.3721 13.2513 51.8487 13.4491 52.2002 13.8006C52.5517 14.1521 52.7494 14.6286 52.75 15.1257V17.0007H50.875C50.3777 17.0007 49.9008 16.8032 49.5492 16.4516C49.1975 16.0999 49 15.623 49 15.1257C49 14.6284 49.1975 14.1515 49.5492 13.7999C49.9008 13.4483 50.3777 13.2507 50.875 13.2507V13.2507ZM46 18.5007H52.75V21.5007H46V18.5007ZM47.5 23.0007H52.75V30.5007H47.5V23.0007ZM59.5009 30.5007H54.25V23.0007H59.5L59.5009 30.5007ZM54.25 21.5007V18.5007H61L61.0009 21.5007H54.25Z" fill="white"/>
</g>
<defs>
<clipPath id="clip0_7_432">
<rect width="24" height="24" fill="white" transform="translate(41.5 10)"/>
</clipPath>
</defs>
</svg>
