<svg width="107" height="44" viewBox="0 0 107 44" fill="none" xmlns="http://www.w3.org/2000/svg">
<rect width="107" height="44" rx="12" fill="#1C1C1E"/>
<g clip-path="url(#clip0_6_688)">
<path d="M62.5 14.5H44.5C44.1022 14.5 43.7206 14.658 43.4393 14.9393C43.158 15.2206 43 15.6022 43 16V28C43 28.3978 43.158 28.7794 43.4393 29.0607C43.7206 29.342 44.1022 29.5 44.5 29.5H62.5C62.8978 29.5 63.2794 29.342 63.5607 29.0607C63.842 28.7794 64 28.3978 64 28V16C64 15.6022 63.842 15.2206 63.5607 14.9393C63.2794 14.658 62.8978 14.5 62.5 14.5V14.5ZM62.5 16V18.25H44.5V16H62.5ZM44.5 28V19.75H62.5V28H44.5Z" fill="white"/>
<path d="M53.5 25H46V26.5H53.5V25Z" fill="white"/>
</g>
<defs>
<clipPath id="clip0_6_688">
<rect width="24" height="24" fill="white" transform="translate(41.5 10)"/>
</clipPath>
</defs>
</svg>
