<svg xmlns="http://www.w3.org/2000/svg" width="512.001" height="512.001" shape-rendering="geometricPrecision" text-rendering="geometricPrecision" image-rendering="optimizeQuality" fill-rule="evenodd" clip-rule="evenodd" viewBox="0 0 13546.54 13546.54"><path d="M5789.9 4446.56h-721.81v1680.42h-471v427.68h471v363.39h-471v427.68h471v1754.39h719.32V7345.73h1030.97l992.37 1680.42h667.82V7345.73h471v-427.68h-471v-363.39h471v-427.68h-471V4446.56h-667.82v1680.42H6765.76L5789.9 4446.56zM6773.33 0c1870.31 0 3563.77 758.3 4789.33 1983.87 1225.7 1225.57 1983.87 2919.15 1983.87 4789.46s-758.17 3563.77-1983.87 4789.33c-1225.57 1225.7-2919.02 1983.87-4789.33 1983.87s-3563.9-758.3-4789.46-1983.87C758.3 10337.09 0 8643.64 0 6773.33s758.3-3563.9 1983.87-4789.46C3209.44 758.3 4903.02 0 6773.33 0zm5318.41 6970.29c-12.41 339.57-56.72 670.18-129.32 989.64l1010.36 270.81c95.2-406.59 151.42-828.05 164.57-1260.45h-1045.61zm-230.97 1369.91c-98.91 321.69-227.61 630.34-382.75 922.87l905.87 522.86c199.69-371.21 363.64-764.38 487.25-1175.06l-1010.37-270.68zm-579.2 1262.43c-179.09 284.83-384.37 551.41-612.47 796.4l740.17 738.32c291.66-309.65 552.78-648.46 778.16-1011.85l-905.86-522.87zm-889.61 1073.04c-243.01 225.39-507.61 428.43-788.95 605.65l522.98 905.86c361.78-224.51 699.35-484.52 1008.01-774.68l-742.04-736.83zm-1129.14 802.48c-292.03 154.77-600.93 283.72-922.62 382.63l270.81 1010.37c410.68-123.49 803.72-287.44 1174.81-487.13l-522.99-905.87zm-1302.77 484.28c-319.83 72.98-650.94 116.91-989.63 129.32v1045.61c432.27-13.15 853.86-69.37 1260.32-164.57l-270.69-1010.36zm-1383.81 129.32c-339.31-12.41-670.05-56.72-989.63-129.32l-270.69 1010.36c406.59 95.2 828.05 151.42 1260.32 164.57v-1045.61zm-1369.78-230.97c-321.82-99.03-630.1-227.61-922.62-382.63l-522.99 905.75c371.09 199.56 764.13 363.64 1174.81 487.25l270.81-1010.37zm-1262.81-579.45c-282.96-177.98-547.93-381.89-791.68-608.13l-739.31 739.31c308.66 290.29 646.23 550.04 1008.01 774.56l522.98-905.74zm-1070.18-886.63c-226.5-244-430.66-509.59-608.38-792.18l-905.86 523.11c224.64 361.9 484.52 699.6 774.93 1008.38l739.31-739.31zm-804.84-1131.62c-154.89-292.28-283.72-601.05-382.75-922.87L675.39 8611.02C799 9021.7 963.07 9414.99 1162.76 9786.08l905.87-522.99zm-484.4-1303.14c-72.85-319.95-116.91-650.94-129.32-989.64H409.17c13.16 432.4 69.38 853.99 164.57 1260.45l1010.49-270.81zm-129.32-1383.81c12.41-339.19 56.72-669.81 129.32-989.51L573.87 5315.81c-95.2 406.46-151.54 828.05-164.7 1260.32h1045.74zm230.97-1369.79c99.03-321.94 227.74-630.46 382.87-922.74l-905.99-522.99C962.95 4131.7 799 4524.87 675.39 4935.55l1010.49 270.8zm579.33-1262.3c177.97-283.1 381.88-548.18 608.37-792.06l-739.43-739.43c-290.29 308.78-550.29 646.35-774.93 1008.38l905.99 523.11zm887-1070.44c243.87-226.5 509.22-430.53 791.56-608.12l-523.11-905.99c-361.78 224.51-699.35 484.27-1008.01 774.55l739.56 739.56zm1131.74-804.96c292.03-154.77 601.05-283.59 922.5-382.63L4935.64 675.4c-410.55 123.61-803.72 287.56-1174.81 487.25l523.11 905.99zm1302.77-484.28c319.83-72.85 650.82-116.91 989.51-129.32V409.18c-432.27 13.16-853.86 69.38-1260.32 164.57l270.81 1010.61zm1383.69-129.32c339.19 12.41 669.93 56.6 989.51 129.32l270.81-1010.61c-406.46-95.19-828.05-151.41-1260.32-164.57v1045.86zm1369.78 230.97c321.69 98.91 630.1 227.74 922.5 382.63l523.11-905.99c-370.96-199.69-764.26-363.64-1174.81-487.25l-270.81 1010.61zm1262.68 579.46c282.97 177.97 547.81 381.76 791.56 608.12l739.56-739.56c-308.66-290.16-646.23-550.04-1008.01-774.55l-523.11 905.99zm1068.08 884.27c229.6 246.97 433.64 512.82 610.61 794.16l905.86-522.86c-224.51-361.9-484.65-699.72-774.93-1008.5l-52.87 52.87-686.56 686.56-2.11-2.23zm807.07 1133.73c372.21 701.58 584.67 1482.6 613.71 2292.65h1045.61c-13.15-432.4-69.25-853.74-164.57-1260.2l-1010.36 270.69c-29.29-128.58-63.17-255.42-101.65-380.28l1010.37-270.68c-123.61-410.68-287.56-803.97-487.25-1175.06l-905.87 522.87zM6773.33 1819.29c2736.09 0 4954.15 2218.07 4954.15 4954.03 0 2736.09-2218.06 4954.15-4954.15 4954.15-2736.09 0-4954.15-2218.06-4954.15-4954.15 0-2735.96 2218.06-4954.03 4954.15-4954.03zm-985.92 5098.74v-363.39h563.82l214.59 363.39h-778.41zm1437.8 0h585.54v-363.39h-796.52l210.98 363.39zm585.54 427.68h-337.33l337.33 580.95v-580.95zM5787.41 6126.97v-527.08l311.27 527.08h-311.27z"/></svg>