<svg width="107" height="44" viewBox="0 0 107 44" fill="none" xmlns="http://www.w3.org/2000/svg">
<rect width="107" height="44" rx="12" fill="#1C1C1E"/>
<g clip-path="url(#clip0_7_505)">
<path d="M50.5 13H46C45.6022 13 45.2206 13.158 44.9393 13.4393C44.658 13.7206 44.5 14.1022 44.5 14.5V19C44.5 19.3978 44.658 19.7794 44.9393 20.0607C45.2206 20.342 45.6022 20.5 46 20.5H50.5C50.8978 20.5 51.2794 20.342 51.5607 20.0607C51.842 19.7794 52 19.3978 52 19V14.5C52 14.1022 51.842 13.7206 51.5607 13.4393C51.2794 13.158 50.8978 13 50.5 13V13ZM50.5 19H46V14.5H50.5V19Z" fill="white"/>
<path d="M61 13H56.5C56.1022 13 55.7206 13.158 55.4393 13.4393C55.158 13.7206 55 14.1022 55 14.5V19C55 19.3978 55.158 19.7794 55.4393 20.0607C55.7206 20.342 56.1022 20.5 56.5 20.5H61C61.3978 20.5 61.7794 20.342 62.0607 20.0607C62.342 19.7794 62.5 19.3978 62.5 19V14.5C62.5 14.1022 62.342 13.7206 62.0607 13.4393C61.7794 13.158 61.3978 13 61 13V13ZM61 19H56.5V14.5H61V19Z" fill="white"/>
<path d="M50.5 23.5H46C45.6022 23.5 45.2206 23.658 44.9393 23.9393C44.658 24.2206 44.5 24.6022 44.5 25V29.5C44.5 29.8978 44.658 30.2794 44.9393 30.5607C45.2206 30.842 45.6022 31 46 31H50.5C50.8978 31 51.2794 30.842 51.5607 30.5607C51.842 30.2794 52 29.8978 52 29.5V25C52 24.6022 51.842 24.2206 51.5607 23.9393C51.2794 23.658 50.8978 23.5 50.5 23.5ZM50.5 29.5H46V25H50.5V29.5Z" fill="white"/>
<path d="M61 23.5H56.5C56.1022 23.5 55.7206 23.658 55.4393 23.9393C55.158 24.2206 55 24.6022 55 25V29.5C55 29.8978 55.158 30.2794 55.4393 30.5607C55.7206 30.842 56.1022 31 56.5 31H61C61.3978 31 61.7794 30.842 62.0607 30.5607C62.342 30.2794 62.5 29.8978 62.5 29.5V25C62.5 24.6022 62.342 24.2206 62.0607 23.9393C61.7794 23.658 61.3978 23.5 61 23.5ZM61 29.5H56.5V25H61V29.5Z" fill="white"/>
</g>
<defs>
<clipPath id="clip0_7_505">
<rect width="24" height="24" fill="white" transform="translate(41.5 10)"/>
</clipPath>
</defs>
</svg>
