<svg width="107" height="44" viewBox="0 0 107 44" fill="none" xmlns="http://www.w3.org/2000/svg">
<rect width="107" height="44" rx="12" fill="#1C1C1E"/>
<g clip-path="url(#clip0_6_671)">
<path d="M59.5 22.75H58V24.25H59.5V22.75Z" fill="white"/>
<path d="M62.5 16H44.5V13.75H61V12.25H44.5C44.1022 12.25 43.7206 12.408 43.4393 12.6893C43.158 12.9706 43 13.3522 43 13.75V29.5C43 29.8978 43.158 30.2794 43.4393 30.5607C43.7206 30.842 44.1022 31 44.5 31H62.5C62.8978 31 63.2794 30.842 63.5607 30.5607C63.842 30.2794 64 29.8978 64 29.5V17.5C64 17.1022 63.842 16.7206 63.5607 16.4393C63.2794 16.158 62.8978 16 62.5 16V16ZM44.5 29.5V17.5H62.5V19.75H56.5C56.1022 19.75 55.7206 19.908 55.4393 20.1893C55.158 20.4706 55 20.8522 55 21.25V25.75C55 26.1478 55.158 26.5294 55.4393 26.8107C55.7206 27.092 56.1022 27.25 56.5 27.25H62.5V29.5H44.5ZM62.5 21.25V25.75H56.5V21.25H62.5Z" fill="white"/>
</g>
<defs>
<clipPath id="clip0_6_671">
<rect width="24" height="24" fill="white" transform="translate(41.5 10)"/>
</clipPath>
</defs>
</svg>
